<svg width="364" height="364" viewBox="0 0 364 364" fill="none" xmlns="http://www.w3.org/2000/svg">
<g clip-path="url(#clip0_501_11)">
<rect width="364" height="364" rx="40" fill="#141414"/>
<path d="M-36.2159 40.145C-31.7226 40.145 -28.537 38.1667 -26.6592 34.2099C-24.7144 30.186 -23.7419 23.9155 -23.7419 15.3984C-23.7419 7.0154 -24.6808 1.11376 -26.5586 -2.30651C-28.3694 -5.72678 -31.5884 -7.43691 -36.2159 -7.43691C-40.8433 -7.43691 -44.0959 -5.72678 -45.9737 -2.30651C-47.7844 1.11376 -48.6898 7.0154 -48.6898 15.3984C-48.6898 23.9826 -47.7509 30.2531 -45.8731 34.2099C-43.9953 38.1667 -40.7762 40.145 -36.2159 40.145ZM-36.2159 50.9088C-46.0072 50.9088 -53.2166 47.7568 -57.844 41.4528C-62.4714 35.0817 -64.7852 26.3969 -64.7852 15.3984C-64.7852 -6.93393 -55.2621 -18.1001 -36.2159 -18.1001C-17.2367 -18.1001 -7.74716 -6.93393 -7.74716 15.3984C-7.74716 26.3299 -10.0609 34.9811 -14.6883 41.3522C-19.3157 47.7233 -26.4916 50.9088 -36.2159 50.9088Z" fill="#208DFF"/>
<path d="M15.9998 -16.39H28.2725V38.7367L33.9059 39.1391L33.2017 48.9975H5.03483L4.33066 38.5355L13.5855 37.9319V-3.81545L1.81575 1.01316L-1.8057 -9.04645L15.9998 -16.39Z" fill="#208DFF"/>
<path d="M70.0348 40.145C74.5281 40.145 77.7137 38.1667 79.5915 34.2099C81.5363 30.186 82.5088 23.9155 82.5088 15.3984C82.5088 7.0154 81.5699 1.11376 79.6921 -2.30651C77.8813 -5.72678 74.6623 -7.43691 70.0348 -7.43691C65.4074 -7.43691 62.1548 -5.72678 60.277 -2.30651C58.4663 1.11376 57.5609 7.0154 57.5609 15.3984C57.5609 23.9826 58.4998 30.2531 60.3776 34.2099C62.2554 38.1667 65.4745 40.145 70.0348 40.145ZM70.0348 50.9088C60.2435 50.9088 53.0341 47.7568 48.4067 41.4528C43.7793 35.0817 41.4656 26.3969 41.4656 15.3984C41.4656 -6.93393 50.9887 -18.1001 70.0348 -18.1001C89.014 -18.1001 98.5035 -6.93393 98.5035 15.3984C98.5035 26.3299 96.1898 34.9811 91.5624 41.3522C86.935 47.7233 79.7591 50.9088 70.0348 50.9088Z" fill="#208DFF"/>
<path d="M133.819 40.145C138.312 40.145 141.498 38.1667 143.376 34.2099C145.321 30.186 146.293 23.9155 146.293 15.3984C146.293 7.0154 145.354 1.11376 143.476 -2.30651C141.666 -5.72678 138.446 -7.43691 133.819 -7.43691C129.192 -7.43691 125.939 -5.72678 124.061 -2.30651C122.25 1.11376 121.345 7.0154 121.345 15.3984C121.345 23.9826 122.284 30.2531 124.162 34.2099C126.04 38.1667 129.259 40.145 133.819 40.145ZM133.819 50.9088C124.028 50.9088 116.818 47.7568 112.191 41.4528C107.563 35.0817 105.25 26.3969 105.25 15.3984C105.25 -6.93393 114.773 -18.1001 133.819 -18.1001C152.798 -18.1001 162.288 -6.93393 162.288 15.3984C162.288 26.3299 159.974 34.9811 155.347 41.3522C150.719 47.7233 143.543 50.9088 133.819 50.9088Z" fill="#208DFF"/>
<path d="M186.035 -16.39H198.307V38.7367L203.941 39.1391L203.237 48.9975H175.07L174.366 38.5355L183.62 37.9319V-3.81545L171.851 1.01316L168.229 -9.04645L186.035 -16.39Z" fill="#208DFF"/>
<path d="M240.07 40.145C244.563 40.145 247.749 38.1667 249.626 34.2099C251.571 30.186 252.544 23.9155 252.544 15.3984C252.544 7.0154 251.605 1.11376 249.727 -2.30651C247.916 -5.72678 244.697 -7.43691 240.07 -7.43691C235.442 -7.43691 232.19 -5.72678 230.312 -2.30651C228.501 1.11376 227.596 7.0154 227.596 15.3984C227.596 23.9826 228.535 30.2531 230.413 34.2099C232.29 38.1667 235.509 40.145 240.07 40.145ZM240.07 50.9088C230.278 50.9088 223.069 47.7568 218.442 41.4528C213.814 35.0817 211.5 26.3969 211.5 15.3984C211.5 -6.93393 221.024 -18.1001 240.07 -18.1001C259.049 -18.1001 268.538 -6.93393 268.538 15.3984C268.538 26.3299 266.225 34.9811 261.597 41.3522C256.97 47.7233 249.794 50.9088 240.07 50.9088Z" fill="#208DFF"/>
<path d="M303.854 40.145C308.347 40.145 311.533 38.1667 313.411 34.2099C315.355 30.186 316.328 23.9155 316.328 15.3984C316.328 7.0154 315.389 1.11376 313.511 -2.30651C311.7 -5.72678 308.481 -7.43691 303.854 -7.43691C299.227 -7.43691 295.974 -5.72678 294.096 -2.30651C292.285 1.11376 291.38 7.0154 291.38 15.3984C291.38 23.9826 292.319 30.2531 294.197 34.2099C296.075 38.1667 299.294 40.145 303.854 40.145ZM303.854 50.9088C294.063 50.9088 286.853 47.7568 282.226 41.4528C277.598 35.0817 275.285 26.3969 275.285 15.3984C275.285 -6.93393 284.808 -18.1001 303.854 -18.1001C322.833 -18.1001 332.323 -6.93393 332.323 15.3984C332.323 26.3299 330.009 34.9811 325.382 41.3522C320.754 47.7233 313.578 50.9088 303.854 50.9088Z" fill="#208DFF"/>
<path d="M356.07 -16.39H368.342V38.7367L373.976 39.1391L373.272 48.9975H345.105L344.4 38.5355L353.655 37.9319V-3.81545L341.886 1.01316L338.264 -9.04645L356.07 -16.39Z" fill="#208DFF"/>
<path d="M-59.6103 258.372C-54.8897 258.372 -51.5431 256.294 -49.5703 252.137C-47.5271 247.909 -46.5055 241.322 -46.5055 232.374C-46.5055 223.567 -47.4919 217.367 -49.4646 213.774C-51.3669 210.18 -54.7488 208.384 -59.6103 208.384C-64.4717 208.384 -67.8889 210.18 -69.8616 213.774C-71.7639 217.367 -72.7151 223.567 -72.7151 232.374C-72.7151 241.392 -71.7287 247.98 -69.7559 252.137C-67.7832 256.294 -64.4013 258.372 -59.6103 258.372ZM-59.6103 269.68C-69.8968 269.68 -77.4709 266.369 -82.3323 259.746C-87.1938 253.053 -89.6245 243.929 -89.6245 232.374C-89.6245 208.912 -79.6198 197.181 -59.6103 197.181C-39.6712 197.181 -29.7017 208.912 -29.7017 232.374C-29.7017 243.858 -32.1325 252.947 -36.9939 259.64C-41.8554 266.334 -49.3942 269.68 -59.6103 269.68Z" fill="#F0C900"/>
<path d="M-4.75373 198.978H8.13971V256.893L14.058 257.315L13.3182 267.672H-16.2733L-17.0131 256.681L-7.29015 256.047V212.188L-19.6552 217.261L-23.4598 206.693L-4.75373 198.978Z" fill="#F0C900"/>
<path d="M52.0142 258.372C56.7348 258.372 60.0814 256.294 62.0542 252.137C64.0974 247.909 65.119 241.322 65.119 232.374C65.119 223.567 64.1326 217.367 62.1599 213.774C60.2576 210.18 56.8757 208.384 52.0142 208.384C47.1527 208.384 43.7356 210.18 41.7629 213.774C39.8606 217.367 38.9094 223.567 38.9094 232.374C38.9094 241.392 39.8958 247.98 41.8686 252.137C43.8413 256.294 47.2232 258.372 52.0142 258.372ZM52.0142 269.68C41.7276 269.68 34.1536 266.369 29.2922 259.746C24.4307 253.053 22 243.929 22 232.374C22 208.912 32.0047 197.181 52.0142 197.181C71.9532 197.181 81.9228 208.912 81.9228 232.374C81.9228 243.858 79.492 252.947 74.6306 259.64C69.7691 266.334 62.2303 269.68 52.0142 269.68Z" fill="#F0C900"/>
<path d="M-37.7042 366.716C-33.4111 366.716 -30.3676 364.826 -28.5734 361.046C-26.7153 357.201 -25.7862 351.21 -25.7862 343.072C-25.7862 335.063 -26.6832 329.424 -28.4773 326.157C-30.2074 322.889 -33.283 321.255 -37.7042 321.255C-42.1254 321.255 -45.233 322.889 -47.0271 326.157C-48.7572 329.424 -49.6222 335.063 -49.6222 343.072C-49.6222 351.274 -48.7251 357.265 -46.931 361.046C-45.1369 364.826 -42.0613 366.716 -37.7042 366.716ZM-37.7042 377C-47.0592 377 -53.9473 373.989 -58.3685 367.966C-62.7896 361.879 -65.0002 353.581 -65.0002 343.072C-65.0002 321.735 -55.9016 311.067 -37.7042 311.067C-19.5709 311.067 -10.5042 321.735 -10.5042 343.072C-10.5042 353.517 -12.7148 361.782 -17.136 367.87C-21.5572 373.957 -28.4133 377 -37.7042 377Z" fill="#F0C900"/>
<path d="M12.1844 312.701H23.9102V365.371L29.2925 365.755L28.6197 375.174H1.70812L1.03534 365.178L9.87772 364.602V324.715L-1.36749 329.328L-4.82755 319.717L12.1844 312.701Z" fill="#F0C900"/>
<path d="M63.8113 366.716C68.1044 366.716 71.148 364.826 72.9421 361.046C74.8003 357.201 75.7294 351.21 75.7294 343.072C75.7294 335.063 74.8323 329.424 73.0382 326.157C71.3082 322.889 68.2325 321.255 63.8113 321.255C59.3901 321.255 56.2825 322.889 54.4884 326.157C52.7584 329.424 51.8933 335.063 51.8933 343.072C51.8933 351.274 52.7904 357.265 54.5845 361.046C56.3786 364.826 59.4542 366.716 63.8113 366.716ZM63.8113 377C54.4563 377 47.5683 373.989 43.1471 367.966C38.7259 361.879 36.5153 353.581 36.5153 343.072C36.5153 321.735 45.614 311.067 63.8113 311.067C81.9446 311.067 91.0113 321.735 91.0113 343.072C91.0113 353.517 88.8007 361.782 84.3795 367.87C79.9583 373.957 73.1023 377 63.8113 377Z" fill="#F0C900"/>
<path d="M124.753 366.716C129.046 366.716 132.09 364.826 133.884 361.046C135.742 357.201 136.671 351.21 136.671 343.072C136.671 335.063 135.774 329.424 133.98 326.157C132.25 322.889 129.174 321.255 124.753 321.255C120.332 321.255 117.224 322.889 115.43 326.157C113.7 329.424 112.835 335.063 112.835 343.072C112.835 351.274 113.732 357.265 115.526 361.046C117.32 364.826 120.396 366.716 124.753 366.716ZM124.753 377C115.398 377 108.51 373.989 104.089 367.966C99.6675 361.879 97.4569 353.581 97.4569 343.072C97.4569 321.735 106.556 311.067 124.753 311.067C142.886 311.067 151.953 321.735 151.953 343.072C151.953 353.517 149.742 361.782 145.321 367.87C140.9 373.957 134.044 377 124.753 377Z" fill="#F0C900"/>
<path d="M185.695 366.716C189.988 366.716 193.031 364.826 194.825 361.046C196.683 357.201 197.613 351.21 197.613 343.072C197.613 335.063 196.715 329.424 194.921 326.157C193.191 322.889 190.116 321.255 185.695 321.255C181.273 321.255 178.166 322.889 176.372 326.157C174.642 329.424 173.777 335.063 173.777 343.072C173.777 351.274 174.674 357.265 176.468 361.046C178.262 364.826 181.337 366.716 185.695 366.716ZM185.695 377C176.34 377 169.451 373.989 165.03 367.966C160.609 361.879 158.398 353.581 158.398 343.072C158.398 321.735 167.497 311.067 185.695 311.067C203.828 311.067 212.894 321.735 212.894 343.072C212.894 353.517 210.684 361.782 206.263 367.87C201.841 373.957 194.985 377 185.695 377Z" fill="#F0C900"/>
<path d="M246.636 366.716C250.929 366.716 253.973 364.826 255.767 361.046C257.625 357.201 258.554 351.21 258.554 343.072C258.554 335.063 257.657 329.424 255.863 326.157C254.133 322.889 251.057 321.255 246.636 321.255C242.215 321.255 239.107 322.889 237.313 326.157C235.583 329.424 234.718 335.063 234.718 343.072C234.718 351.274 235.615 357.265 237.409 361.046C239.203 364.826 242.279 366.716 246.636 366.716ZM246.636 377C237.281 377 230.393 373.989 225.972 367.966C221.551 361.879 219.34 353.581 219.34 343.072C219.34 321.735 228.439 311.067 246.636 311.067C264.769 311.067 273.836 321.735 273.836 343.072C273.836 353.517 271.625 361.782 267.204 367.87C262.783 373.957 255.927 377 246.636 377Z" fill="#F0C900"/>
<path d="M307.578 366.716C311.871 366.716 314.914 364.826 316.708 361.046C318.567 357.201 319.496 351.21 319.496 343.072C319.496 335.063 318.599 329.424 316.805 326.157C315.075 322.889 311.999 321.255 307.578 321.255C303.157 321.255 300.049 322.889 298.255 326.157C296.525 329.424 295.66 335.063 295.66 343.072C295.66 351.274 296.557 357.265 298.351 361.046C300.145 364.826 303.221 366.716 307.578 366.716ZM307.578 377C298.223 377 291.335 373.989 286.913 367.966C282.492 361.879 280.282 353.581 280.282 343.072C280.282 321.735 289.38 311.067 307.578 311.067C325.711 311.067 334.778 321.735 334.778 343.072C334.778 353.517 332.567 361.782 328.146 367.87C323.725 373.957 316.869 377 307.578 377Z" fill="#F0C900"/>
<path d="M357.466 312.701H369.192V365.371L374.574 365.755L373.902 375.174H346.99L346.317 365.178L355.16 364.602V324.715L343.914 329.328L340.454 319.717L357.466 312.701Z" fill="#F0C900"/>
<path d="M-53.2195 147.245C-48.7262 147.245 -45.5407 145.267 -43.6629 141.31C-41.718 137.286 -40.7456 131.016 -40.7456 122.499C-40.7456 114.115 -41.6845 108.214 -43.5623 104.794C-45.373 101.373 -48.5921 99.6632 -53.2195 99.6632C-57.8469 99.6632 -61.0996 101.373 -62.9773 104.794C-64.7881 108.214 -65.6934 114.115 -65.6934 122.499C-65.6934 131.083 -64.7545 137.353 -62.8767 141.31C-60.999 145.267 -57.7799 147.245 -53.2195 147.245ZM-53.2195 158.009C-63.0109 158.009 -70.2203 154.857 -74.8477 148.553C-79.4751 142.182 -81.7888 133.497 -81.7888 122.499C-81.7888 100.166 -72.2657 89 -53.2195 89C-34.2404 89 -24.7508 100.166 -24.7508 122.499C-24.7508 133.43 -27.0645 142.081 -31.692 148.452C-36.3194 154.823 -43.4952 158.009 -53.2195 158.009Z" fill="#208DFF"/>
<path d="M-1.00385 90.7101H11.2689V145.837L16.9023 146.239L16.1981 156.098H-11.9688L-12.673 145.636L-3.41816 145.032V103.285L-15.1879 108.113L-18.8094 98.0537L-1.00385 90.7101Z" fill="#208DFF"/>
<path d="M53.0312 147.245C57.5245 147.245 60.71 145.267 62.5878 141.31C64.5327 137.286 65.5051 131.016 65.5051 122.499C65.5051 114.115 64.5662 108.214 62.6884 104.794C60.8777 101.373 57.6586 99.6632 53.0312 99.6632C48.4038 99.6632 45.1512 101.373 43.2734 104.794C41.4626 108.214 40.5573 114.115 40.5573 122.499C40.5573 131.083 41.4962 137.353 43.374 141.31C45.2518 145.267 48.4708 147.245 53.0312 147.245ZM53.0312 158.009C43.2398 158.009 36.0305 154.857 31.403 148.553C26.7756 142.182 24.4619 133.497 24.4619 122.499C24.4619 100.166 33.985 89 53.0312 89C72.0103 89 81.4999 100.166 81.4999 122.499C81.4999 133.43 79.1862 142.081 74.5588 148.452C69.9313 154.823 62.7555 158.009 53.0312 158.009Z" fill="#208DFF"/>
<path d="M310.474 147.245C314.967 147.245 318.153 145.267 320.031 141.31C321.975 137.286 322.948 131.016 322.948 122.499C322.948 114.115 322.009 108.214 320.131 104.794C318.32 101.373 315.101 99.6632 310.474 99.6632C305.847 99.6632 302.594 101.373 300.716 104.794C298.905 108.214 298 114.115 298 122.499C298 131.083 298.939 137.353 300.817 141.31C302.695 145.267 305.914 147.245 310.474 147.245ZM310.474 158.009C300.683 158.009 293.473 154.857 288.846 148.553C284.218 142.182 281.905 133.497 281.905 122.499C281.905 100.166 291.428 89 310.474 89C329.453 89 338.943 100.166 338.943 122.499C338.943 133.43 336.629 142.081 332.002 148.452C327.374 154.823 320.198 158.009 310.474 158.009Z" fill="#208DFF"/>
<path d="M374.258 147.245C378.751 147.245 381.937 145.267 383.815 141.31C385.76 137.286 386.732 131.016 386.732 122.499C386.732 114.115 385.793 108.214 383.915 104.794C382.105 101.373 378.886 99.6632 374.258 99.6632C369.631 99.6632 366.378 101.373 364.5 104.794C362.69 108.214 361.784 114.115 361.784 122.499C361.784 131.083 362.723 137.353 364.601 141.31C366.479 145.267 369.698 147.245 374.258 147.245ZM374.258 158.009C364.467 158.009 357.257 154.857 352.63 148.553C348.003 142.182 345.689 133.497 345.689 122.499C345.689 100.166 355.212 89 374.258 89C393.237 89 402.727 100.166 402.727 122.499C402.727 133.43 400.413 142.081 395.786 148.452C391.158 154.823 383.982 158.009 374.258 158.009Z" fill="#208DFF"/>
<path d="M312.014 259.191C316.735 259.191 320.081 257.113 322.054 252.956C324.097 248.728 325.119 242.141 325.119 233.193C325.119 224.386 324.133 218.186 322.16 214.592C320.258 210.999 316.876 209.202 312.014 209.202C307.153 209.202 303.736 210.999 301.763 214.592C299.861 218.186 298.909 224.386 298.909 233.193C298.909 242.211 299.896 248.799 301.869 252.956C303.841 257.113 307.223 259.191 312.014 259.191ZM312.014 270.499C301.728 270.499 294.154 267.188 289.292 260.565C284.431 253.872 282 244.748 282 233.193C282 209.731 292.005 198 312.014 198C331.953 198 341.923 209.731 341.923 233.193C341.923 244.677 339.492 253.766 334.631 260.459C329.769 267.153 322.23 270.499 312.014 270.499Z" fill="#F0C900"/>
<path d="M366.871 199.797H379.764V257.711L385.682 258.134L384.943 268.491H355.351L354.611 257.5L364.334 256.866V213.007L351.969 218.08L348.165 207.512L366.871 199.797Z" fill="#F0C900"/>
<path d="M130.167 204.583L121.505 205.337V239.229C121.505 253.288 127.363 260.318 139.079 260.318C145.188 260.318 149.665 258.435 152.511 254.669C155.356 250.903 156.779 245.756 156.779 239.229V206.09L146.736 205.462L147.615 192.407H183.39V204.583L174.729 205.588V243.12C174.729 252.911 171.8 260.903 165.942 267.096C160.084 273.289 150.921 276.385 138.452 276.385C126.066 276.385 116.903 273.289 110.961 267.096C105.103 260.82 102.174 252.828 102.174 243.12V205.337L92.6341 204.583L93.5128 192.407H130.167V204.583ZM226.198 207.345H225.947L214.901 239.731H236.868L226.198 207.345ZM213.771 274H182.012L181.259 260.945L190.046 260.318L214.901 192.407H240.006L264.735 261.322L273.271 261.698L272.518 274H238.374V263.581L245.278 262.828L240.885 251.656H210.758L206.741 262.075L214.65 262.703L213.771 274Z" fill="white"/>
<path d="M157.178 172.065H116.943L116.119 157.784L126.418 156.96V96.9504L115.982 96.1265L116.943 82.8063H157.178V97.0878L147.566 97.9117V158.059L158.002 158.608L157.178 172.065ZM184.234 109.859H169.129L170.09 81.845L187.942 82.8063H234.356L252.346 81.845V109.859H237.103L235.867 98.461H221.311V157.097L231.747 157.784L230.786 172.065H190.688L189.727 157.784L200.026 156.96V98.461H185.745L184.234 109.859Z" fill="white"/>
</g>
<defs>
<clipPath id="clip0_501_11">
<rect width="364" height="364" rx="40" fill="white"/>
</clipPath>
</defs>
</svg>
