<svg width="1209" height="304" viewBox="0 0 1209 304" fill="none" xmlns="http://www.w3.org/2000/svg">
<path d="M361.224 122H322.344L321.624 110.624L332.856 110.048V39.632L321.48 39.056L322.2 28.4H375.624L389.592 27.68V55.616H376.92L376.2 40.784H349.272V110.768L361.944 111.344L361.224 122ZM431.924 122H394.484L393.764 110.624L404.996 110.048V39.632L393.62 39.056L394.34 28.4H432.068V39.776L421.412 40.352V110.768L432.644 111.344L431.924 122ZM536.707 122H499.267L498.547 110.624L509.779 110.048V40.784H483.139C483.139 54.896 482.323 67.328 480.691 78.08C479.059 88.736 476.755 97.424 473.779 104.144C470.899 110.768 467.443 115.76 463.411 119.12C459.475 122.384 455.059 124.016 450.163 124.016C448.243 124.016 446.515 123.824 444.979 123.44C443.539 123.152 442.531 122.864 441.955 122.576L441.091 122L441.811 108.608C442.963 109.184 444.595 109.472 446.707 109.472C453.331 109.472 458.467 104.048 462.115 93.2C465.763 82.352 467.827 64.736 468.307 40.352L455.203 39.632L455.923 28.4H536.851V39.776L526.195 40.352V110.048L537.427 110.624L536.707 122ZM588.625 122H549.313L548.593 110.624L559.825 110.048V39.632L548.449 39.056L549.169 28.4H586.897V39.056L576.241 39.632V65.12H587.473C614.833 65.12 628.513 73.76 628.513 91.04C628.513 100.544 625.105 108.08 618.289 113.648C611.569 119.216 601.681 122 588.625 122ZM587.473 76.352H576.241V110.48H587.761C595.729 110.48 601.825 108.896 606.049 105.728C610.369 102.464 612.529 97.856 612.529 91.904C612.529 86.24 610.417 82.256 606.193 79.952C602.065 77.552 595.825 76.352 587.473 76.352ZM654.091 145.04H641.563L640.555 109.616H649.483C657.643 94.352 662.059 71.264 662.731 40.352L650.491 39.632L651.211 28.4H733.579V39.776L722.779 40.352V109.616H735.883L734.155 145.04H720.619L719.179 122H656.539L654.091 145.04ZM706.795 40.784H677.275C676.603 71.12 672.427 94.064 664.747 109.616H706.795V40.784ZM785.174 122H747.734L747.014 110.624L758.246 110.048V39.632L746.87 39.056L747.59 28.4H785.318V39.776L774.662 40.352V110.768L785.894 111.344L785.174 122ZM814.789 122H794.629L793.909 110.624L806.581 110.336L820.261 85.712C814.309 83.6 809.461 80.096 805.717 75.2C801.973 70.208 800.101 64.16 800.101 57.056C800.101 47.744 803.173 40.64 809.317 35.744C815.557 30.848 823.285 28.4 832.501 28.4H879.589V39.776L868.789 40.352V110.768L880.165 111.344L879.445 122H843.013L842.293 112.064L853.381 111.488V87.584H833.797L819.397 115.952L814.789 122ZM815.797 56.624C815.797 61.904 817.477 66.32 820.837 69.872C824.197 73.328 827.989 75.056 832.213 75.056H853.381V40.208H833.653C828.757 40.208 824.533 41.648 820.981 44.528C817.525 47.408 815.797 51.44 815.797 56.624ZM359.784 274H322.344L321.624 262.624L332.856 262.048V191.632L321.48 191.056L322.2 180.4H359.928V191.776L349.272 192.352V262.768L360.504 263.344L359.784 274ZM377.59 205.456H365.782L366.502 179.68L380.47 180.4H433.894L447.862 179.68V205.456H435.91L434.902 192.784H415.03V262.048L426.262 262.624L425.542 274H388.102L387.382 262.624L398.47 262.048V192.784H379.03L377.59 205.456ZM489.916 240.016H449.02V228.352H489.916V240.016ZM573.212 274H534.476L533.756 263.92L546.428 263.344V255.856C515.324 255.664 499.772 245.056 499.772 224.032C499.772 213.184 503.708 205.6 511.58 201.28C519.548 196.864 531.164 194.608 546.428 194.512V187.168L535.196 186.592L535.916 177.376H571.772V186.592L561.116 187.168V194.512C568.604 194.512 575.036 194.992 580.412 195.952C585.884 196.912 590.732 198.448 594.956 200.56C599.276 202.672 602.492 205.696 604.604 209.632C606.812 213.472 607.916 218.176 607.916 223.744C607.916 244.96 592.316 255.664 561.116 255.856V263.488L573.932 263.92L573.212 274ZM590.924 224.176C590.924 216.688 588.62 211.6 584.012 208.912C579.404 206.224 571.772 204.832 561.116 204.736V245.632C571.484 245.536 579.02 243.856 583.724 240.592C588.524 237.328 590.924 231.856 590.924 224.176ZM516.764 224.464C516.764 231.952 519.116 237.328 523.82 240.592C528.524 243.856 536.06 245.536 546.428 245.632V204.736C535.772 204.832 528.14 206.272 523.532 209.056C519.02 211.744 516.764 216.88 516.764 224.464ZM640.499 274H607.091L606.371 262.624L617.171 262.048L648.131 180.4H669.587L700.547 262.912L711.203 263.344L710.483 274H675.203V264.784L683.987 264.352L677.075 246.496H638.483L631.571 263.92L641.219 264.352L640.499 274ZM657.923 193.072L642.227 236.128H673.331L657.923 193.072ZM748.634 191.056L743.594 191.344L761.018 215.968L778.442 191.776L773.258 191.632V180.4H810.122V191.776L795.722 192.352L770.378 226.768L796.73 262.192L811.994 262.624L811.13 274H773.114V263.344L778.01 263.2L760.298 238.432H760.154L742.73 262.624L747.914 262.768V274H710.474L709.754 262.624L724.874 262.048L750.65 227.488L724.73 191.488L710.474 191.056L711.05 180.4H748.634V191.056ZM855.346 274H817.906L817.186 262.624L828.418 262.048V191.632L817.042 191.056L817.762 180.4H855.49V191.776L844.834 192.352V262.768L856.066 263.344L855.346 274ZM909.441 274H867.969L867.249 262.624L878.481 262.048V191.632L867.105 191.056L867.825 180.4H909.009C920.241 180.4 928.545 182.464 933.921 186.592C939.297 190.72 941.985 196.288 941.985 203.296C941.985 211.456 938.097 218.272 930.321 223.744C935.697 225.376 939.825 228.064 942.705 231.808C945.681 235.456 947.169 239.92 947.169 245.2C947.169 254.032 944.097 261.04 937.953 266.224C931.809 271.408 922.305 274 909.441 274ZM913.761 231.232H893.025V262.336H908.577C923.745 262.336 931.329 256.624 931.329 245.2C931.329 235.888 925.473 231.232 913.761 231.232ZM893.025 220.72H913.041C916.305 220.72 919.377 219.376 922.257 216.688C925.233 214 926.721 210.064 926.721 204.88C926.721 200.176 925.185 196.864 922.113 194.944C919.041 192.928 914.385 191.92 908.145 191.92H893.025V220.72ZM1057.42 191.056L1046.62 191.632V261.616H1059.72L1057.85 297.04H1043.88L1042.3 274H960.219L959.499 262.624L970.731 262.048V191.632L959.355 191.056L960.075 180.4H997.803V191.056L987.147 191.632V261.616H1030.2V191.632L1018.97 191.056L1019.69 180.4H1057.42V191.056ZM1109.17 274H1071.73L1071.01 262.624L1082.25 262.048V191.632L1070.87 191.056L1071.59 180.4H1109.32V191.776L1098.66 192.352V262.768L1109.89 263.344L1109.17 274ZM1163.27 274H1121.8L1121.08 262.624L1132.31 262.048V191.632L1120.93 191.056L1121.65 180.4H1162.84C1174.07 180.4 1182.37 182.464 1187.75 186.592C1193.12 190.72 1195.81 196.288 1195.81 203.296C1195.81 211.456 1191.92 218.272 1184.15 223.744C1189.52 225.376 1193.65 228.064 1196.53 231.808C1199.51 235.456 1201 239.92 1201 245.2C1201 254.032 1197.92 261.04 1191.78 266.224C1185.64 271.408 1176.13 274 1163.27 274ZM1167.59 231.232H1146.85V262.336H1162.4C1177.57 262.336 1185.16 256.624 1185.16 245.2C1185.16 235.888 1179.3 231.232 1167.59 231.232ZM1146.85 220.72H1166.87C1170.13 220.72 1173.2 219.376 1176.08 216.688C1179.06 214 1180.55 210.064 1180.55 204.88C1180.55 200.176 1179.01 196.864 1175.94 194.944C1172.87 192.928 1168.21 191.92 1161.97 191.92H1146.85V220.72Z" fill="#141414"/>
<path d="M21.248 62.368C24.1067 62.368 26.1333 61.1093 27.328 58.592C28.5653 56.032 29.184 52.0427 29.184 46.624C29.184 41.2907 28.5867 37.536 27.392 35.36C26.24 33.184 24.192 32.096 21.248 32.096C18.304 32.096 16.2347 33.184 15.04 35.36C13.888 37.536 13.312 41.2907 13.312 46.624C13.312 52.0853 13.9093 56.0747 15.104 58.592C16.2987 61.1093 18.3467 62.368 21.248 62.368ZM21.248 69.216C15.0187 69.216 10.432 67.2107 7.488 63.2C4.544 59.1467 3.072 53.6213 3.072 46.624C3.072 32.416 9.13067 25.312 21.248 25.312C33.3227 25.312 39.36 32.416 39.36 46.624C39.36 53.5787 37.888 59.0827 34.944 63.136C32 67.1893 27.4347 69.216 21.248 69.216ZM54.468 26.4H62.276V61.472L65.86 61.728L65.412 68H47.492L47.044 61.344L52.932 60.96V34.4L45.444 37.472L43.14 31.072L54.468 26.4ZM88.8455 62.368C91.7042 62.368 93.7308 61.1093 94.9255 58.592C96.1628 56.032 96.7815 52.0427 96.7815 46.624C96.7815 41.2907 96.1842 37.536 94.9895 35.36C93.8375 33.184 91.7895 32.096 88.8455 32.096C85.9015 32.096 83.8322 33.184 82.6375 35.36C81.4855 37.536 80.9095 41.2907 80.9095 46.624C80.9095 52.0853 81.5068 56.0747 82.7015 58.592C83.8962 61.1093 85.9442 62.368 88.8455 62.368ZM88.8455 69.216C82.6162 69.216 78.0295 67.2107 75.0855 63.2C72.1415 59.1467 70.6695 53.6213 70.6695 46.624C70.6695 32.416 76.7282 25.312 88.8455 25.312C100.92 25.312 106.958 32.416 106.958 46.624C106.958 53.5787 105.486 59.0827 102.542 63.136C99.5975 67.1893 95.0322 69.216 88.8455 69.216ZM129.425 62.368C132.284 62.368 134.311 61.1093 135.505 58.592C136.743 56.032 137.361 52.0427 137.361 46.624C137.361 41.2907 136.764 37.536 135.569 35.36C134.417 33.184 132.369 32.096 129.425 32.096C126.481 32.096 124.412 33.184 123.217 35.36C122.065 37.536 121.489 41.2907 121.489 46.624C121.489 52.0853 122.087 56.0747 123.281 58.592C124.476 61.1093 126.524 62.368 129.425 62.368ZM129.425 69.216C123.196 69.216 118.609 67.2107 115.665 63.2C112.721 59.1467 111.249 53.6213 111.249 46.624C111.249 32.416 117.308 25.312 129.425 25.312C141.5 25.312 147.537 32.416 147.537 46.624C147.537 53.5787 146.065 59.0827 143.121 63.136C140.177 67.1893 135.612 69.216 129.425 69.216ZM162.646 26.4H170.454V61.472L174.038 61.728L173.59 68H155.67L155.222 61.344L161.11 60.96V34.4L153.622 37.472L151.318 31.072L162.646 26.4ZM197.023 62.368C199.882 62.368 201.908 61.1093 203.103 58.592C204.34 56.032 204.959 52.0427 204.959 46.624C204.959 41.2907 204.362 37.536 203.167 35.36C202.015 33.184 199.967 32.096 197.023 32.096C194.079 32.096 192.01 33.184 190.815 35.36C189.663 37.536 189.087 41.2907 189.087 46.624C189.087 52.0853 189.684 56.0747 190.879 58.592C192.074 61.1093 194.122 62.368 197.023 62.368ZM197.023 69.216C190.794 69.216 186.207 67.2107 183.263 63.2C180.319 59.1467 178.847 53.6213 178.847 46.624C178.847 32.416 184.906 25.312 197.023 25.312C209.098 25.312 215.135 32.416 215.135 46.624C215.135 53.5787 213.663 59.0827 210.719 63.136C207.775 67.1893 203.21 69.216 197.023 69.216ZM237.603 62.368C240.462 62.368 242.488 61.1093 243.683 58.592C244.92 56.032 245.539 52.0427 245.539 46.624C245.539 41.2907 244.942 37.536 243.747 35.36C242.595 33.184 240.547 32.096 237.603 32.096C234.659 32.096 232.59 33.184 231.395 35.36C230.243 37.536 229.667 41.2907 229.667 46.624C229.667 52.0853 230.264 56.0747 231.459 58.592C232.654 61.1093 234.702 62.368 237.603 62.368ZM237.603 69.216C231.374 69.216 226.787 67.2107 223.843 63.2C220.899 59.1467 219.427 53.6213 219.427 46.624C219.427 32.416 225.486 25.312 237.603 25.312C249.678 25.312 255.715 32.416 255.715 46.624C255.715 53.5787 254.243 59.0827 251.299 63.136C248.355 67.1893 243.79 69.216 237.603 69.216ZM270.823 26.4H278.631V61.472L282.215 61.728L281.767 68H263.847L263.399 61.344L269.287 60.96V34.4L261.799 37.472L259.495 31.072L270.823 26.4Z" fill="#208DFF"/>
<path d="M21.248 130.368C24.1067 130.368 26.1333 129.109 27.328 126.592C28.5653 124.032 29.184 120.043 29.184 114.624C29.184 109.291 28.5867 105.536 27.392 103.36C26.24 101.184 24.192 100.096 21.248 100.096C18.304 100.096 16.2347 101.184 15.04 103.36C13.888 105.536 13.312 109.291 13.312 114.624C13.312 120.085 13.9093 124.075 15.104 126.592C16.2987 129.109 18.3467 130.368 21.248 130.368ZM21.248 137.216C15.0187 137.216 10.432 135.211 7.488 131.2C4.544 127.147 3.072 121.621 3.072 114.624C3.072 100.416 9.13067 93.312 21.248 93.312C33.3227 93.312 39.36 100.416 39.36 114.624C39.36 121.579 37.888 127.083 34.944 131.136C32 135.189 27.4347 137.216 21.248 137.216ZM54.468 94.4H62.276V129.472L65.86 129.728L65.412 136H47.492L47.044 129.344L52.932 128.96V102.4L45.444 105.472L43.14 99.072L54.468 94.4ZM88.8455 130.368C91.7042 130.368 93.7308 129.109 94.9255 126.592C96.1628 124.032 96.7815 120.043 96.7815 114.624C96.7815 109.291 96.1842 105.536 94.9895 103.36C93.8375 101.184 91.7895 100.096 88.8455 100.096C85.9015 100.096 83.8322 101.184 82.6375 103.36C81.4855 105.536 80.9095 109.291 80.9095 114.624C80.9095 120.085 81.5068 124.075 82.7015 126.592C83.8962 129.109 85.9442 130.368 88.8455 130.368ZM88.8455 137.216C82.6162 137.216 78.0295 135.211 75.0855 131.2C72.1415 127.147 70.6695 121.621 70.6695 114.624C70.6695 100.416 76.7282 93.312 88.8455 93.312C100.92 93.312 106.958 100.416 106.958 114.624C106.958 121.579 105.486 127.083 102.542 131.136C99.5975 135.189 95.0322 137.216 88.8455 137.216ZM122.065 94.4H129.873V129.472L133.457 129.728L133.009 136H115.089L114.641 129.344L120.529 128.96V102.4L113.041 105.472L110.737 99.072L122.065 94.4ZM156.443 130.368C159.302 130.368 161.328 129.109 162.523 126.592C163.76 124.032 164.379 120.043 164.379 114.624C164.379 109.291 163.782 105.536 162.587 103.36C161.435 101.184 159.387 100.096 156.443 100.096C153.499 100.096 151.43 101.184 150.235 103.36C149.083 105.536 148.507 109.291 148.507 114.624C148.507 120.085 149.104 124.075 150.299 126.592C151.494 129.109 153.542 130.368 156.443 130.368ZM156.443 137.216C150.214 137.216 145.627 135.211 142.683 131.2C139.739 127.147 138.267 121.621 138.267 114.624C138.267 100.416 144.326 93.312 156.443 93.312C168.518 93.312 174.555 100.416 174.555 114.624C174.555 121.579 173.083 127.083 170.139 131.136C167.195 135.189 162.63 137.216 156.443 137.216ZM189.663 94.4H197.471V129.472L201.055 129.728L200.607 136H182.687L182.239 129.344L188.127 128.96V102.4L180.639 105.472L178.335 99.072L189.663 94.4ZM224.04 130.368C226.899 130.368 228.926 129.109 230.12 126.592C231.358 124.032 231.976 120.043 231.976 114.624C231.976 109.291 231.379 105.536 230.184 103.36C229.032 101.184 226.984 100.096 224.04 100.096C221.096 100.096 219.027 101.184 217.832 103.36C216.68 105.536 216.104 109.291 216.104 114.624C216.104 120.085 216.702 124.075 217.896 126.592C219.091 129.109 221.139 130.368 224.04 130.368ZM224.04 137.216C217.811 137.216 213.224 135.211 210.28 131.2C207.336 127.147 205.864 121.621 205.864 114.624C205.864 100.416 211.923 93.312 224.04 93.312C236.115 93.312 242.152 100.416 242.152 114.624C242.152 121.579 240.68 127.083 237.736 131.136C234.792 135.189 230.227 137.216 224.04 137.216ZM264.62 130.368C267.479 130.368 269.506 129.109 270.7 126.592C271.938 124.032 272.556 120.043 272.556 114.624C272.556 109.291 271.959 105.536 270.764 103.36C269.612 101.184 267.564 100.096 264.62 100.096C261.676 100.096 259.607 101.184 258.412 103.36C257.26 105.536 256.684 109.291 256.684 114.624C256.684 120.085 257.282 124.075 258.476 126.592C259.671 129.109 261.719 130.368 264.62 130.368ZM264.62 137.216C258.391 137.216 253.804 135.211 250.86 131.2C247.916 127.147 246.444 121.621 246.444 114.624C246.444 100.416 252.503 93.312 264.62 93.312C276.695 93.312 282.732 100.416 282.732 114.624C282.732 121.579 281.26 127.083 278.316 131.136C275.372 135.189 270.807 137.216 264.62 137.216Z" fill="#208DFF"/>
<path d="M22.3227 201.206C25.3259 201.206 27.4551 199.884 28.7102 197.239C30.0101 194.55 30.66 190.359 30.66 184.666C30.66 179.063 30.0325 175.119 28.7774 172.832C27.5671 170.546 25.4156 169.403 22.3227 169.403C19.2298 169.403 17.0558 170.546 15.8007 172.832C14.5904 175.119 13.9853 179.063 13.9853 184.666C13.9853 190.404 14.6128 194.595 15.8679 197.239C17.123 199.884 19.2746 201.206 22.3227 201.206ZM22.3227 208.401C15.7783 208.401 10.9596 206.294 7.86672 202.081C4.77382 197.822 3.22737 192.017 3.22737 184.666C3.22737 169.74 9.59247 162.276 22.3227 162.276C35.008 162.276 41.3507 169.74 41.3507 184.666C41.3507 191.973 39.8043 197.755 36.7114 202.013C33.6185 206.272 28.8222 208.401 22.3227 208.401ZM57.2228 163.419H65.4257V200.265L69.191 200.534L68.7203 207.123H49.894L49.4233 200.131L55.6091 199.727V171.824L47.7424 175.051L45.3219 168.328L57.2228 163.419ZM93.339 201.206C96.3423 201.206 98.4714 199.884 99.7265 197.239C101.026 194.55 101.676 190.359 101.676 184.666C101.676 179.063 101.049 175.119 99.7938 172.832C98.5835 170.546 96.4319 169.403 93.339 169.403C90.2461 169.403 88.0721 170.546 86.817 172.832C85.6068 175.119 85.0016 179.063 85.0016 184.666C85.0016 190.404 85.6292 194.595 86.8843 197.239C88.1394 199.884 90.2909 201.206 93.339 201.206ZM93.339 208.401C86.7946 208.401 81.976 206.294 78.8831 202.081C75.7902 197.822 74.2437 192.017 74.2437 184.666C74.2437 169.74 80.6088 162.276 93.339 162.276C106.024 162.276 112.367 169.74 112.367 184.666C112.367 191.973 110.821 197.755 107.728 202.013C104.635 206.272 99.8386 208.401 93.339 208.401ZM128.239 163.419H136.442V200.265L140.207 200.534L139.737 207.123H120.91L120.44 200.131L126.625 199.727V171.824L118.759 175.051L116.338 168.328L128.239 163.419ZM164.355 201.206C167.359 201.206 169.488 199.884 170.743 197.239C172.043 194.55 172.693 190.359 172.693 184.666C172.693 179.063 172.065 175.119 170.81 172.832C169.6 170.546 167.448 169.403 164.355 169.403C161.262 169.403 159.088 170.546 157.833 172.832C156.623 175.119 156.018 179.063 156.018 184.666C156.018 190.404 156.646 194.595 157.901 197.239C159.156 199.884 161.307 201.206 164.355 201.206ZM164.355 208.401C157.811 208.401 152.992 206.294 149.899 202.081C146.807 197.822 145.26 192.017 145.26 184.666C145.26 169.74 151.625 162.276 164.355 162.276C177.041 162.276 183.383 169.74 183.383 184.666C183.383 191.973 181.837 197.755 178.744 202.013C175.651 206.272 170.855 208.401 164.355 208.401ZM199.256 163.419H207.458V200.265L211.224 200.534L210.753 207.123H191.927L191.456 200.131L197.642 199.727V171.824L189.775 175.051L187.355 168.328L199.256 163.419ZM235.372 201.206C238.375 201.206 240.504 199.884 241.759 197.239C243.059 194.55 243.709 190.359 243.709 184.666C243.709 179.063 243.082 175.119 241.826 172.832C240.616 170.546 238.465 169.403 235.372 169.403C232.279 169.403 230.105 170.546 228.85 172.832C227.639 175.119 227.034 179.063 227.034 184.666C227.034 190.404 227.662 194.595 228.917 197.239C230.172 199.884 232.324 201.206 235.372 201.206ZM235.372 208.401C228.827 208.401 224.009 206.294 220.916 202.081C217.823 197.822 216.276 192.017 216.276 184.666C216.276 169.74 222.642 162.276 235.372 162.276C248.057 162.276 254.4 169.74 254.4 184.666C254.4 191.973 252.853 197.755 249.76 202.013C246.668 206.272 241.871 208.401 235.372 208.401ZM270.272 163.419H278.475V200.265L282.24 200.534L281.769 207.123H262.943L262.472 200.131L268.658 199.727V171.824L260.791 175.051L258.371 168.328L270.272 163.419Z" fill="#F0C900"/>
<path d="M20.3011 270.135C23.0323 270.135 24.9687 268.932 26.1101 266.527C27.2923 264.081 27.8834 260.27 27.8834 255.092C27.8834 249.997 27.3127 246.409 26.1712 244.33C25.0706 242.251 23.1139 241.212 20.3011 241.212C17.4883 241.212 15.5112 242.251 14.3697 244.33C13.2691 246.409 12.7187 249.997 12.7187 255.092C12.7187 260.31 13.2894 264.122 14.4309 266.527C15.5723 268.932 17.529 270.135 20.3011 270.135ZM20.3011 276.678C14.3493 276.678 9.96709 274.762 7.15429 270.93C4.34149 267.057 2.93509 261.778 2.93509 255.092C2.93509 241.518 8.72375 234.73 20.3011 234.73C31.8376 234.73 37.6059 241.518 37.6059 255.092C37.6059 261.737 36.1995 266.996 33.3867 270.869C30.5739 274.741 26.212 276.678 20.3011 276.678ZM52.0406 235.77H59.5006V269.279L62.9249 269.523L62.4968 275.516H45.3755L44.9474 269.156L50.573 268.789V243.413L43.4187 246.348L41.2174 240.233L52.0406 235.77ZM84.886 270.135C87.6173 270.135 89.5536 268.932 90.695 266.527C91.8772 264.081 92.4683 260.27 92.4683 255.092C92.4683 249.997 91.8976 246.409 90.7562 244.33C89.6555 242.251 87.6988 241.212 84.886 241.212C82.0732 241.212 80.0961 242.251 78.9547 244.33C77.854 246.409 77.3037 249.997 77.3037 255.092C77.3037 260.31 77.8744 264.122 79.0158 266.527C80.1572 268.932 82.114 270.135 84.886 270.135ZM84.886 276.678C78.9343 276.678 74.552 274.762 71.7392 270.93C68.9264 267.057 67.52 261.778 67.52 255.092C67.52 241.518 73.3087 234.73 84.886 234.73C96.4225 234.73 102.191 241.518 102.191 255.092C102.191 261.737 100.784 266.996 97.9716 270.869C95.1588 274.741 90.7969 276.678 84.886 276.678ZM123.658 270.135C126.389 270.135 128.325 268.932 129.467 266.527C130.649 264.081 131.24 260.27 131.24 255.092C131.24 249.997 130.669 246.409 129.528 244.33C128.427 242.251 126.47 241.212 123.658 241.212C120.845 241.212 118.868 242.251 117.726 244.33C116.626 246.409 116.075 249.997 116.075 255.092C116.075 260.31 116.646 264.122 117.787 266.527C118.929 268.932 120.885 270.135 123.658 270.135ZM123.658 276.678C117.706 276.678 113.324 274.762 110.511 270.93C107.698 267.057 106.292 261.778 106.292 255.092C106.292 241.518 112.08 234.73 123.658 234.73C135.194 234.73 140.962 241.518 140.962 255.092C140.962 261.737 139.556 266.996 136.743 270.869C133.93 274.741 129.568 276.678 123.658 276.678ZM162.429 270.135C165.16 270.135 167.097 268.932 168.238 266.527C169.42 264.081 170.011 260.27 170.011 255.092C170.011 249.997 169.441 246.409 168.299 244.33C167.199 242.251 165.242 241.212 162.429 241.212C159.616 241.212 157.639 242.251 156.498 244.33C155.397 246.409 154.847 249.997 154.847 255.092C154.847 260.31 155.417 264.122 156.559 266.527C157.7 268.932 159.657 270.135 162.429 270.135ZM162.429 276.678C156.477 276.678 152.095 274.762 149.282 270.93C146.469 267.057 145.063 261.778 145.063 255.092C145.063 241.518 150.852 234.73 162.429 234.73C173.966 234.73 179.734 241.518 179.734 255.092C179.734 261.737 178.327 266.996 175.515 270.869C172.702 274.741 168.34 276.678 162.429 276.678ZM201.201 270.135C203.932 270.135 205.868 268.932 207.01 266.527C208.192 264.081 208.783 260.27 208.783 255.092C208.783 249.997 208.212 246.409 207.071 244.33C205.97 242.251 204.013 241.212 201.201 241.212C198.388 241.212 196.411 242.251 195.269 244.33C194.169 246.409 193.618 249.997 193.618 255.092C193.618 260.31 194.189 264.122 195.33 266.527C196.472 268.932 198.428 270.135 201.201 270.135ZM201.201 276.678C195.249 276.678 190.867 274.762 188.054 270.93C185.241 267.057 183.835 261.778 183.835 255.092C183.835 241.518 189.623 234.73 201.201 234.73C212.737 234.73 218.505 241.518 218.505 255.092C218.505 261.737 217.099 266.996 214.286 270.869C211.473 274.741 207.111 276.678 201.201 276.678ZM239.972 270.135C242.703 270.135 244.64 268.932 245.781 266.527C246.963 264.081 247.554 260.27 247.554 255.092C247.554 249.997 246.984 246.409 245.842 244.33C244.742 242.251 242.785 241.212 239.972 241.212C237.159 241.212 235.182 242.251 234.041 244.33C232.94 246.409 232.39 249.997 232.39 255.092C232.39 260.31 232.96 264.122 234.102 266.527C235.243 268.932 237.2 270.135 239.972 270.135ZM239.972 276.678C234.02 276.678 229.638 274.762 226.825 270.93C224.012 267.057 222.606 261.778 222.606 255.092C222.606 241.518 228.395 234.73 239.972 234.73C251.509 234.73 257.277 241.518 257.277 255.092C257.277 261.737 255.87 266.996 253.058 270.869C250.245 274.741 245.883 276.678 239.972 276.678ZM271.712 235.77H279.172V269.279L282.596 269.523L282.168 275.516H265.046L264.618 269.156L270.244 268.789V243.413L263.09 246.348L260.888 240.233L271.712 235.77Z" fill="#F0C900"/>
</svg>
